<svg xmlns="http://www.w3.org/2000/svg" xmlns:xlink="http://www.w3.org/1999/xlink" width="500" zoomAndPan="magnify" viewBox="0 0 375 374.999991" height="500" preserveAspectRatio="xMidYMid meet" version="1.2"><defs><clipPath id="59c56dc35b"><rect x="0" width="254" y="0" height="54"/></clipPath><clipPath id="4df2c54556"><rect x="0" width="97" y="0" height="33"/></clipPath><clipPath id="d235f92e28"><path d="M 153.394531 97.316406 L 221.644531 97.316406 L 221.644531 200.816406 L 153.394531 200.816406 Z M 153.394531 97.316406 "/></clipPath></defs><g id="2ecf805a3d"><g transform="matrix(1,0,0,1,61,202)"><g clip-path="url(#59c56dc35b)"><g style="fill:#000000;fill-opacity:1;"><g transform="translate(0.354438, 39.369278)"><path style="stroke:none" d="M 11.25 -26.65625 C 14.15625 -26.65625 16.671875 -26.113281 18.796875 -25.03125 C 20.929688 -23.945312 22.5625 -22.394531 23.6875 -20.375 C 24.820312 -18.363281 25.390625 -15.992188 25.390625 -13.265625 C 25.390625 -10.546875 24.820312 -8.179688 23.6875 -6.171875 C 22.5625 -4.171875 20.929688 -2.640625 18.796875 -1.578125 C 16.671875 -0.523438 14.15625 0 11.25 0 L 2.9375 0 L 2.9375 -26.65625 Z M 11.25 -2.875 C 14.6875 -2.875 17.3125 -3.785156 19.125 -5.609375 C 20.9375 -7.429688 21.84375 -9.984375 21.84375 -13.265625 C 21.84375 -16.585938 20.929688 -19.175781 19.109375 -21.03125 C 17.285156 -22.894531 14.664062 -23.828125 11.25 -23.828125 L 6.421875 -23.828125 L 6.421875 -2.875 Z M 11.25 -2.875 "/></g></g><g style="fill:#000000;fill-opacity:1;"><g transform="translate(27.390887, 39.369278)"><path style="stroke:none" d="M 6.421875 -26.65625 L 6.421875 0 L 2.9375 0 L 2.9375 -26.65625 Z M 6.421875 -26.65625 "/></g></g><g style="fill:#000000;fill-opacity:1;"><g transform="translate(36.7982, 39.369278)"><path style="stroke:none" d="M 18.703125 -5.921875 L 7.078125 -5.921875 L 4.9375 0 L 1.265625 0 L 10.90625 -26.5 L 14.921875 -26.5 L 24.515625 0 L 20.84375 0 Z M 17.703125 -8.765625 L 12.890625 -22.21875 L 8.078125 -8.765625 Z M 17.703125 -8.765625 "/></g></g><g style="fill:#000000;fill-opacity:1;"><g transform="translate(62.572693, 39.369278)"><path style="stroke:none" d="M 16.984375 0 L 10.640625 -10.90625 L 6.421875 -10.90625 L 6.421875 0 L 2.9375 0 L 2.9375 -26.65625 L 11.546875 -26.65625 C 13.566406 -26.65625 15.269531 -26.3125 16.65625 -25.625 C 18.050781 -24.9375 19.09375 -24.003906 19.78125 -22.828125 C 20.46875 -21.660156 20.8125 -20.320312 20.8125 -18.8125 C 20.8125 -16.976562 20.28125 -15.359375 19.21875 -13.953125 C 18.164062 -12.554688 16.578125 -11.628906 14.453125 -11.171875 L 21.15625 0 Z M 6.421875 -13.6875 L 11.546875 -13.6875 C 13.429688 -13.6875 14.847656 -14.148438 15.796875 -15.078125 C 16.742188 -16.015625 17.21875 -17.257812 17.21875 -18.8125 C 17.21875 -20.394531 16.75 -21.617188 15.8125 -22.484375 C 14.882812 -23.359375 13.460938 -23.796875 11.546875 -23.796875 L 6.421875 -23.796875 Z M 6.421875 -13.6875 "/></g></g><g style="fill:#000000;fill-opacity:1;"><g transform="translate(85.823273, 39.369278)"><path style="stroke:none" d="M 6.421875 -26.65625 L 6.421875 0 L 2.9375 0 L 2.9375 -26.65625 Z M 6.421875 -26.65625 "/></g></g><g style="fill:#000000;fill-opacity:1;"><g transform="translate(95.230585, 39.369278)"><path style="stroke:none" d="M 11.40625 0.265625 C 9.644531 0.265625 8.066406 -0.046875 6.671875 -0.671875 C 5.285156 -1.296875 4.195312 -2.160156 3.40625 -3.265625 C 2.613281 -4.378906 2.207031 -5.660156 2.1875 -7.109375 L 5.890625 -7.109375 C 6.015625 -5.859375 6.53125 -4.804688 7.4375 -3.953125 C 8.34375 -3.097656 9.664062 -2.671875 11.40625 -2.671875 C 13.0625 -2.671875 14.363281 -3.082031 15.3125 -3.90625 C 16.269531 -4.738281 16.75 -5.804688 16.75 -7.109375 C 16.75 -8.128906 16.46875 -8.957031 15.90625 -9.59375 C 15.351562 -10.238281 14.65625 -10.722656 13.8125 -11.046875 C 12.96875 -11.378906 11.832031 -11.738281 10.40625 -12.125 C 8.644531 -12.582031 7.234375 -13.039062 6.171875 -13.5 C 5.117188 -13.957031 4.210938 -14.675781 3.453125 -15.65625 C 2.703125 -16.644531 2.328125 -17.96875 2.328125 -19.625 C 2.328125 -21.070312 2.695312 -22.359375 3.4375 -23.484375 C 4.175781 -24.609375 5.210938 -25.472656 6.546875 -26.078125 C 7.890625 -26.691406 9.429688 -27 11.171875 -27 C 13.671875 -27 15.71875 -26.375 17.3125 -25.125 C 18.90625 -23.875 19.800781 -22.21875 20 -20.15625 L 16.1875 -20.15625 C 16.050781 -21.175781 15.507812 -22.070312 14.5625 -22.84375 C 13.625 -23.625 12.378906 -24.015625 10.828125 -24.015625 C 9.367188 -24.015625 8.179688 -23.640625 7.265625 -22.890625 C 6.347656 -22.140625 5.890625 -21.085938 5.890625 -19.734375 C 5.890625 -18.765625 6.160156 -17.972656 6.703125 -17.359375 C 7.253906 -16.753906 7.929688 -16.289062 8.734375 -15.96875 C 9.535156 -15.644531 10.664062 -15.28125 12.125 -14.875 C 13.882812 -14.394531 15.300781 -13.914062 16.375 -13.4375 C 17.445312 -12.96875 18.363281 -12.242188 19.125 -11.265625 C 19.882812 -10.285156 20.265625 -8.953125 20.265625 -7.265625 C 20.265625 -5.960938 19.921875 -4.738281 19.234375 -3.59375 C 18.546875 -2.445312 17.523438 -1.515625 16.171875 -0.796875 C 14.828125 -0.0859375 13.238281 0.265625 11.40625 0.265625 Z M 11.40625 0.265625 "/></g></g><g style="fill:#000000;fill-opacity:1;"><g transform="translate(117.678097, 39.369278)"><path style="stroke:none" d="M 18.703125 -5.921875 L 7.078125 -5.921875 L 4.9375 0 L 1.265625 0 L 10.90625 -26.5 L 14.921875 -26.5 L 24.515625 0 L 20.84375 0 Z M 17.703125 -8.765625 L 12.890625 -22.21875 L 8.078125 -8.765625 Z M 17.703125 -8.765625 "/></g></g><g style="fill:#000000;fill-opacity:1;"><g transform="translate(143.45259, 39.369278)"><path style="stroke:none" d="M 19.359375 -26.65625 L 19.359375 -23.828125 L 12.09375 -23.828125 L 12.09375 0 L 8.609375 0 L 8.609375 -23.828125 L 1.296875 -23.828125 L 1.296875 -26.65625 Z M 19.359375 -26.65625 "/></g></g><g style="fill:#000000;fill-opacity:1;"><g transform="translate(164.141014, 39.369278)"><path style="stroke:none" d="M 15.03125 0.265625 C 12.5625 0.265625 10.304688 -0.3125 8.265625 -1.46875 C 6.222656 -2.632812 4.609375 -4.253906 3.421875 -6.328125 C 2.234375 -8.410156 1.640625 -10.75 1.640625 -13.34375 C 1.640625 -15.945312 2.234375 -18.285156 3.421875 -20.359375 C 4.609375 -22.441406 6.222656 -24.0625 8.265625 -25.21875 C 10.304688 -26.382812 12.5625 -26.96875 15.03125 -26.96875 C 17.53125 -26.96875 19.800781 -26.382812 21.84375 -25.21875 C 23.882812 -24.0625 25.488281 -22.445312 26.65625 -20.375 C 27.832031 -18.3125 28.421875 -15.96875 28.421875 -13.34375 C 28.421875 -10.71875 27.832031 -8.375 26.65625 -6.3125 C 25.488281 -4.25 23.882812 -2.632812 21.84375 -1.46875 C 19.800781 -0.3125 17.53125 0.265625 15.03125 0.265625 Z M 15.03125 -2.75 C 16.894531 -2.75 18.570312 -3.179688 20.0625 -4.046875 C 21.550781 -4.921875 22.722656 -6.160156 23.578125 -7.765625 C 24.429688 -9.367188 24.859375 -11.226562 24.859375 -13.34375 C 24.859375 -15.488281 24.429688 -17.359375 23.578125 -18.953125 C 22.722656 -20.546875 21.554688 -21.773438 20.078125 -22.640625 C 18.597656 -23.503906 16.914062 -23.9375 15.03125 -23.9375 C 13.144531 -23.9375 11.460938 -23.503906 9.984375 -22.640625 C 8.503906 -21.773438 7.335938 -20.546875 6.484375 -18.953125 C 5.628906 -17.359375 5.203125 -15.488281 5.203125 -13.34375 C 5.203125 -11.226562 5.628906 -9.367188 6.484375 -7.765625 C 7.335938 -6.160156 8.507812 -4.921875 10 -4.046875 C 11.488281 -3.179688 13.164062 -2.75 15.03125 -2.75 Z M 15.03125 -2.75 "/></g></g><g style="fill:#000000;fill-opacity:1;"><g transform="translate(194.198509, 39.369278)"><path style="stroke:none" d="M 16.984375 0 L 10.640625 -10.90625 L 6.421875 -10.90625 L 6.421875 0 L 2.9375 0 L 2.9375 -26.65625 L 11.546875 -26.65625 C 13.566406 -26.65625 15.269531 -26.3125 16.65625 -25.625 C 18.050781 -24.9375 19.09375 -24.003906 19.78125 -22.828125 C 20.46875 -21.660156 20.8125 -20.320312 20.8125 -18.8125 C 20.8125 -16.976562 20.28125 -15.359375 19.21875 -13.953125 C 18.164062 -12.554688 16.578125 -11.628906 14.453125 -11.171875 L 21.15625 0 Z M 6.421875 -13.6875 L 11.546875 -13.6875 C 13.429688 -13.6875 14.847656 -14.148438 15.796875 -15.078125 C 16.742188 -16.015625 17.21875 -17.257812 17.21875 -18.8125 C 17.21875 -20.394531 16.75 -21.617188 15.8125 -22.484375 C 14.882812 -23.359375 13.460938 -23.796875 11.546875 -23.796875 L 6.421875 -23.796875 Z M 6.421875 -13.6875 "/></g></g><g style="fill:#000000;fill-opacity:1;"><g transform="translate(217.449089, 39.369278)"><path style="stroke:none" d="M 18.703125 -5.921875 L 7.078125 -5.921875 L 4.9375 0 L 1.265625 0 L 10.90625 -26.5 L 14.921875 -26.5 L 24.515625 0 L 20.84375 0 Z M 17.703125 -8.765625 L 12.890625 -22.21875 L 8.078125 -8.765625 Z M 17.703125 -8.765625 "/></g></g><g style="fill:#000000;fill-opacity:1;"><g transform="translate(243.223567, 39.369278)"><path style="stroke:none" d="M 6.421875 -26.65625 L 6.421875 0 L 2.9375 0 L 2.9375 -26.65625 Z M 6.421875 -26.65625 "/></g></g></g></g><g transform="matrix(1,0,0,1,139,248)"><g clip-path="url(#4df2c54556)"><g style="fill:#000000;fill-opacity:1;"><g transform="translate(1.1305, 23.364197)"><path style="stroke:none" d="M 3.71875 -13.78125 L 3.71875 -8.625 L 9.34375 -8.625 L 9.34375 -6.96875 L 3.71875 -6.96875 L 3.71875 -1.65625 L 10 -1.65625 L 10 0 L 1.703125 0 L 1.703125 -15.4375 L 10 -15.4375 L 10 -13.78125 Z M 3.71875 -13.78125 "/></g></g><g style="fill:#000000;fill-opacity:1;"><g transform="translate(12.478503, 23.364197)"><path style="stroke:none" d="M 6 0.203125 C 5.070312 0.203125 4.238281 0.046875 3.5 -0.265625 C 2.757812 -0.585938 2.175781 -1.03125 1.75 -1.59375 C 1.320312 -2.164062 1.085938 -2.820312 1.046875 -3.5625 L 3.125 -3.5625 C 3.175781 -2.957031 3.457031 -2.460938 3.96875 -2.078125 C 4.476562 -1.691406 5.144531 -1.5 5.96875 -1.5 C 6.738281 -1.5 7.34375 -1.664062 7.78125 -2 C 8.226562 -2.34375 8.453125 -2.773438 8.453125 -3.296875 C 8.453125 -3.828125 8.210938 -4.222656 7.734375 -4.484375 C 7.265625 -4.742188 6.535156 -5 5.546875 -5.25 C 4.648438 -5.476562 3.914062 -5.710938 3.34375 -5.953125 C 2.78125 -6.203125 2.296875 -6.566406 1.890625 -7.046875 C 1.484375 -7.523438 1.28125 -8.15625 1.28125 -8.9375 C 1.28125 -9.5625 1.460938 -10.128906 1.828125 -10.640625 C 2.203125 -11.160156 2.726562 -11.570312 3.40625 -11.875 C 4.082031 -12.175781 4.859375 -12.328125 5.734375 -12.328125 C 7.078125 -12.328125 8.160156 -11.984375 8.984375 -11.296875 C 9.804688 -10.617188 10.25 -9.691406 10.3125 -8.515625 L 8.296875 -8.515625 C 8.253906 -9.148438 8 -9.660156 7.53125 -10.046875 C 7.070312 -10.429688 6.445312 -10.625 5.65625 -10.625 C 4.9375 -10.625 4.363281 -10.46875 3.9375 -10.15625 C 3.507812 -9.84375 3.296875 -9.4375 3.296875 -8.9375 C 3.296875 -8.539062 3.425781 -8.210938 3.6875 -7.953125 C 3.945312 -7.691406 4.269531 -7.484375 4.65625 -7.328125 C 5.050781 -7.179688 5.59375 -7.007812 6.28125 -6.8125 C 7.15625 -6.570312 7.863281 -6.335938 8.40625 -6.109375 C 8.945312 -5.890625 9.414062 -5.550781 9.8125 -5.09375 C 10.207031 -4.632812 10.410156 -4.035156 10.421875 -3.296875 C 10.421875 -2.628906 10.234375 -2.03125 9.859375 -1.5 C 9.492188 -0.96875 8.972656 -0.550781 8.296875 -0.25 C 7.628906 0.0507812 6.863281 0.203125 6 0.203125 Z M 6 0.203125 "/></g></g><g style="fill:#000000;fill-opacity:1;"><g transform="translate(24.025587, 23.364197)"><path style="stroke:none" d="M 4.15625 -10.46875 L 4.15625 -3.3125 C 4.15625 -2.726562 4.28125 -2.3125 4.53125 -2.0625 C 4.78125 -1.820312 5.21875 -1.703125 5.84375 -1.703125 L 7.328125 -1.703125 L 7.328125 0 L 5.515625 0 C 4.390625 0 3.546875 -0.253906 2.984375 -0.765625 C 2.421875 -1.285156 2.140625 -2.132812 2.140625 -3.3125 L 2.140625 -10.46875 L 0.578125 -10.46875 L 0.578125 -12.125 L 2.140625 -12.125 L 2.140625 -15.171875 L 4.15625 -15.171875 L 4.15625 -12.125 L 7.328125 -12.125 L 7.328125 -10.46875 Z M 4.15625 -10.46875 "/></g></g><g style="fill:#000000;fill-opacity:1;"><g transform="translate(32.077573, 23.364197)"><path style="stroke:none" d="M 2.34375 0.125 C 1.957031 0.125 1.628906 -0.00390625 1.359375 -0.265625 C 1.097656 -0.523438 0.96875 -0.847656 0.96875 -1.234375 C 0.96875 -1.617188 1.097656 -1.941406 1.359375 -2.203125 C 1.628906 -2.472656 1.957031 -2.609375 2.34375 -2.609375 C 2.707031 -2.609375 3.019531 -2.472656 3.28125 -2.203125 C 3.539062 -1.941406 3.671875 -1.617188 3.671875 -1.234375 C 3.671875 -0.847656 3.539062 -0.523438 3.28125 -0.265625 C 3.019531 -0.00390625 2.707031 0.125 2.34375 0.125 Z M 2.34375 0.125 "/></g></g><g style="fill:#000000;fill-opacity:1;"><g transform="translate(36.722955, 23.364197)"><path style="stroke:none" d=""/></g></g><g style="fill:#000000;fill-opacity:1;"><g transform="translate(42.629223, 23.364197)"><path style="stroke:none" d="M 1.125 -1.609375 C 3 -3.117188 4.46875 -4.351562 5.53125 -5.3125 C 6.59375 -6.28125 7.488281 -7.289062 8.21875 -8.34375 C 8.945312 -9.40625 9.3125 -10.441406 9.3125 -11.453125 C 9.3125 -12.421875 9.078125 -13.179688 8.609375 -13.734375 C 8.148438 -14.285156 7.40625 -14.5625 6.375 -14.5625 C 5.375 -14.5625 4.59375 -14.242188 4.03125 -13.609375 C 3.476562 -12.984375 3.179688 -12.148438 3.140625 -11.109375 L 1.1875 -11.109375 C 1.25 -12.753906 1.75 -14.023438 2.6875 -14.921875 C 3.632812 -15.828125 4.851562 -16.28125 6.34375 -16.28125 C 7.863281 -16.28125 9.070312 -15.859375 9.96875 -15.015625 C 10.863281 -14.179688 11.3125 -13.023438 11.3125 -11.546875 C 11.3125 -10.328125 10.941406 -9.132812 10.203125 -7.96875 C 9.472656 -6.8125 8.644531 -5.796875 7.71875 -4.921875 C 6.789062 -4.046875 5.601562 -3.023438 4.15625 -1.859375 L 11.765625 -1.859375 L 11.765625 -0.171875 L 1.125 -0.171875 Z M 1.125 -1.609375 "/></g></g><g style="fill:#000000;fill-opacity:1;"><g transform="translate(55.348714, 23.364197)"><path style="stroke:none" d="M 1.375 -8.171875 C 1.375 -10.703125 1.785156 -12.675781 2.609375 -14.09375 C 3.429688 -15.519531 4.878906 -16.234375 6.953125 -16.234375 C 8.992188 -16.234375 10.425781 -15.519531 11.25 -14.09375 C 12.082031 -12.675781 12.5 -10.703125 12.5 -8.171875 C 12.5 -5.585938 12.082031 -3.578125 11.25 -2.140625 C 10.425781 -0.710938 8.992188 0 6.953125 0 C 4.878906 0 3.429688 -0.710938 2.609375 -2.140625 C 1.785156 -3.578125 1.375 -5.585938 1.375 -8.171875 Z M 10.515625 -8.171875 C 10.515625 -9.453125 10.425781 -10.535156 10.25 -11.421875 C 10.082031 -12.316406 9.734375 -13.035156 9.203125 -13.578125 C 8.679688 -14.128906 7.929688 -14.40625 6.953125 -14.40625 C 5.941406 -14.40625 5.175781 -14.128906 4.65625 -13.578125 C 4.132812 -13.035156 3.785156 -12.316406 3.609375 -11.421875 C 3.441406 -10.535156 3.359375 -9.453125 3.359375 -8.171875 C 3.359375 -6.835938 3.441406 -5.71875 3.609375 -4.8125 C 3.785156 -3.914062 4.132812 -3.195312 4.65625 -2.65625 C 5.175781 -2.113281 5.941406 -1.84375 6.953125 -1.84375 C 7.929688 -1.84375 8.679688 -2.113281 9.203125 -2.65625 C 9.734375 -3.195312 10.082031 -3.914062 10.25 -4.8125 C 10.425781 -5.71875 10.515625 -6.835938 10.515625 -8.171875 Z M 10.515625 -8.171875 "/></g></g><g style="fill:#000000;fill-opacity:1;"><g transform="translate(69.240612, 23.364197)"><path style="stroke:none" d="M 1.125 -1.609375 C 3 -3.117188 4.46875 -4.351562 5.53125 -5.3125 C 6.59375 -6.28125 7.488281 -7.289062 8.21875 -8.34375 C 8.945312 -9.40625 9.3125 -10.441406 9.3125 -11.453125 C 9.3125 -12.421875 9.078125 -13.179688 8.609375 -13.734375 C 8.148438 -14.285156 7.40625 -14.5625 6.375 -14.5625 C 5.375 -14.5625 4.59375 -14.242188 4.03125 -13.609375 C 3.476562 -12.984375 3.179688 -12.148438 3.140625 -11.109375 L 1.1875 -11.109375 C 1.25 -12.753906 1.75 -14.023438 2.6875 -14.921875 C 3.632812 -15.828125 4.851562 -16.28125 6.34375 -16.28125 C 7.863281 -16.28125 9.070312 -15.859375 9.96875 -15.015625 C 10.863281 -14.179688 11.3125 -13.023438 11.3125 -11.546875 C 11.3125 -10.328125 10.941406 -9.132812 10.203125 -7.96875 C 9.472656 -6.8125 8.644531 -5.796875 7.71875 -4.921875 C 6.789062 -4.046875 5.601562 -3.023438 4.15625 -1.859375 L 11.765625 -1.859375 L 11.765625 -0.171875 L 1.125 -0.171875 Z M 1.125 -1.609375 "/></g></g><g style="fill:#000000;fill-opacity:1;"><g transform="translate(81.960103, 23.364197)"><path style="stroke:none" d="M 11.578125 -14.25 L 3.8125 -14.25 L 3.8125 -9.203125 C 4.144531 -9.671875 4.644531 -10.054688 5.3125 -10.359375 C 5.976562 -10.660156 6.691406 -10.8125 7.453125 -10.8125 C 8.679688 -10.8125 9.675781 -10.554688 10.4375 -10.046875 C 11.207031 -9.546875 11.757812 -8.890625 12.09375 -8.078125 C 12.425781 -7.273438 12.59375 -6.425781 12.59375 -5.53125 C 12.59375 -4.46875 12.390625 -3.515625 11.984375 -2.671875 C 11.585938 -1.835938 10.976562 -1.175781 10.15625 -0.6875 C 9.34375 -0.195312 8.332031 0.046875 7.125 0.046875 C 5.570312 0.046875 4.316406 -0.347656 3.359375 -1.140625 C 2.398438 -1.941406 1.816406 -3.007812 1.609375 -4.34375 L 3.578125 -4.34375 C 3.773438 -3.5 4.179688 -2.835938 4.796875 -2.359375 C 5.421875 -1.890625 6.203125 -1.65625 7.140625 -1.65625 C 8.304688 -1.65625 9.1875 -2.003906 9.78125 -2.703125 C 10.375 -3.410156 10.671875 -4.335938 10.671875 -5.484375 C 10.671875 -6.640625 10.375 -7.53125 9.78125 -8.15625 C 9.1875 -8.78125 8.316406 -9.09375 7.171875 -9.09375 C 6.390625 -9.09375 5.707031 -8.90625 5.125 -8.53125 C 4.539062 -8.15625 4.113281 -7.640625 3.84375 -6.984375 L 1.953125 -6.984375 L 1.953125 -16.015625 L 11.578125 -16.015625 Z M 11.578125 -14.25 "/></g></g></g></g><g clip-rule="nonzero" clip-path="url(#d235f92e28)"><path style=" stroke:none;fill-rule:evenodd;fill:#6abf58;fill-opacity:1;" d="M 185.6875 174.6875 C 180.265625 174.269531 175.300781 172.0625 171.421875 168.664062 C 167.035156 164.824219 164.035156 159.4375 163.242188 153.390625 C 163.109375 152.355469 163.835938 151.40625 164.871094 151.273438 C 165.910156 151.140625 166.855469 151.867188 166.988281 152.90625 C 167.671875 158.023438 170.207031 162.570312 173.914062 165.816406 C 177.109375 168.617188 181.167969 170.472656 185.621094 170.890625 C 184.210938 152.289062 163.902344 148.050781 157.351562 147.167969 L 157.351562 150.191406 C 157.351562 158.511719 160.75 166.082031 166.238281 171.554688 C 171.3125 176.605469 178.125 179.917969 185.6875 180.378906 Z M 166.8125 139.90625 L 181.476562 139.90625 C 182.511719 139.90625 183.375 140.746094 183.375 141.804688 C 183.375 142.84375 182.535156 143.703125 181.476562 143.703125 L 166.8125 143.703125 L 166.8125 145.445312 C 174.375 147.851562 183.660156 152.730469 187.585938 162.59375 C 191.511719 152.730469 200.792969 147.851562 208.355469 145.445312 L 208.355469 143.703125 L 193.691406 143.703125 C 192.65625 143.703125 191.796875 142.863281 191.796875 141.804688 C 191.796875 140.769531 192.632812 139.90625 193.691406 139.90625 L 208.355469 139.90625 L 208.355469 133.242188 L 193.691406 133.242188 C 192.65625 133.242188 191.796875 132.402344 191.796875 131.34375 C 191.796875 130.308594 192.632812 129.445312 193.691406 129.445312 L 208.355469 129.445312 L 208.355469 122.78125 L 193.691406 122.78125 C 192.65625 122.78125 191.796875 121.945312 191.796875 120.882812 C 191.796875 119.847656 192.632812 118.988281 193.691406 118.988281 L 208.160156 118.988281 C 207.519531 114.417969 205.378906 110.3125 202.25 107.179688 C 198.476562 103.40625 193.296875 101.066406 187.585938 101.066406 C 181.875 101.066406 176.691406 103.40625 172.921875 107.179688 C 169.789062 110.335938 167.652344 114.441406 167.011719 119.007812 L 181.476562 119.007812 C 182.511719 119.007812 183.375 119.847656 183.375 120.90625 C 183.375 121.945312 182.535156 122.804688 181.476562 122.804688 L 166.8125 122.804688 L 166.8125 129.46875 L 181.476562 129.46875 C 182.511719 129.46875 183.375 130.308594 183.375 131.367188 C 183.375 132.402344 182.535156 133.265625 181.476562 133.265625 L 166.8125 133.265625 Z M 208.179688 152.90625 C 208.3125 151.867188 209.261719 151.140625 210.296875 151.273438 C 211.332031 151.40625 212.0625 152.355469 211.929688 153.390625 C 211.136719 159.4375 208.113281 164.800781 203.75 168.664062 C 199.867188 172.0625 194.929688 174.269531 189.480469 174.6875 L 189.480469 196.910156 L 200.550781 196.910156 C 201.585938 196.910156 202.449219 197.75 202.449219 198.808594 C 202.449219 199.84375 201.609375 200.707031 200.550781 200.707031 L 174.617188 200.707031 C 173.582031 200.707031 172.722656 199.867188 172.722656 198.808594 C 172.722656 197.769531 173.5625 196.910156 174.617188 196.910156 L 185.6875 196.910156 L 185.6875 184.175781 C 177.089844 183.691406 169.304688 179.984375 163.550781 174.222656 C 157.375 168.066406 153.558594 159.546875 153.558594 150.191406 L 153.558594 145.070312 C 153.558594 144.035156 154.398438 143.171875 155.457031 143.171875 C 155.546875 143.171875 155.632812 143.171875 155.699219 143.195312 C 156.316406 143.238281 159.183594 143.480469 163.019531 144.410156 L 163.019531 121.898438 C 163.019531 121.636719 163.019531 121.390625 163.042969 121.128906 C 163.042969 121.0625 163.019531 120.972656 163.019531 120.90625 C 163.019531 120.773438 163.042969 120.640625 163.0625 120.53125 C 163.394531 114.308594 166.085938 108.679688 170.230469 104.53125 C 174.683594 100.074219 180.816406 97.316406 187.5625 97.316406 C 194.3125 97.316406 200.460938 100.074219 204.894531 104.53125 C 209.039062 108.679688 211.730469 114.308594 212.0625 120.53125 C 212.082031 120.664062 212.105469 120.773438 212.105469 120.90625 C 212.105469 120.972656 212.105469 121.0625 212.082031 121.128906 C 212.082031 121.390625 212.105469 121.636719 212.105469 121.898438 L 212.105469 144.410156 C 215.941406 143.503906 218.808594 143.238281 219.425781 143.195312 C 219.515625 143.195312 219.582031 143.171875 219.667969 143.171875 C 220.707031 143.171875 221.566406 144.011719 221.566406 145.070312 L 221.566406 150.191406 C 221.566406 158.445312 218.589844 166.058594 213.628906 171.972656 C 208.597656 177.976562 201.566406 182.234375 193.5625 183.691406 C 193.449219 183.710938 193.339844 183.710938 193.230469 183.710938 L 193.230469 179.917969 C 200.199219 178.570312 206.351562 174.820312 210.738281 169.546875 C 215.125 164.292969 217.773438 157.539062 217.773438 150.191406 L 217.773438 147.167969 C 211.222656 148.050781 190.9375 152.289062 189.503906 170.890625 C 193.957031 170.472656 198.015625 168.617188 201.210938 165.816406 C 204.9375 162.570312 207.496094 158.023438 208.179688 152.90625 Z M 208.179688 152.90625 "/></g></g></svg>